<svg xmlns="http://www.w3.org/2000/svg" width="2400" height="320" viewBox="0 0 2400 320" fill="#1f76f9" shape-rendering="crispEdges">
                <rect x="80" y="60" width="16" height="16"/><rect x="96" y="60" width="16" height="16"/><rect x="112" y="60" width="16" height="16"/>
                <rect x="64" y="76" width="16" height="16"/><rect x="80" y="76" width="16" height="16"/><rect x="96" y="76" width="16" height="16"/><rect x="112" y="76" width="16" height="16"/><rect x="128" y="76" width="16" height="16"/>
                <rect x="48" y="92" width="16" height="16"/><rect x="64" y="92" width="16" height="16"/><rect x="80" y="92" width="16" height="16"/><rect x="96" y="92" width="16" height="16"/><rect x="112" y="92" width="16" height="16"/><rect x="128" y="92" width="16" height="16"/><rect x="144" y="92" width="16" height="16"/>
                <rect x="320" y="160" width="12" height="12"/><rect x="332" y="160" width="12" height="12"/>
                <rect x="308" y="172" width="12" height="12"/><rect x="320" y="172" width="12" height="12"/><rect x="332" y="172" width="12" height="12"/><rect x="344" y="172" width="12" height="12"/>
                <rect x="308" y="184" width="12" height="12"/><rect x="320" y="184" width="12" height="12"/><rect x="332" y="184" width="12" height="12"/><rect x="344" y="184" width="12" height="12"/>
                <rect x="560" y="40" width="14" height="14"/><rect x="574" y="40" width="14" height="14"/><rect x="588" y="40" width="14" height="14"/>
                <rect x="546" y="54" width="14" height="14"/><rect x="560" y="54" width="14" height="14"/><rect x="574" y="54" width="14" height="14"/><rect x="588" y="54" width="14" height="14"/><rect x="602" y="54" width="14" height="14"/>
                <rect x="532" y="68" width="14" height="14"/><rect x="546" y="68" width="14" height="14"/><rect x="560" y="68" width="14" height="14"/><rect x="574" y="68" width="14" height="14"/><rect x="588" y="68" width="14" height="14"/><rect x="602" y="68" width="14" height="14"/><rect x="616" y="68" width="14" height="14"/>
                <rect x="780" y="200" width="10" height="10"/><rect x="790" y="200" width="10" height="10"/>
                <rect x="770" y="210" width="10" height="10"/><rect x="780" y="210" width="10" height="10"/><rect x="790" y="210" width="10" height="10"/><rect x="800" y="210" width="10" height="10"/>
                <rect x="980" y="120" width="16" height="16"/><rect x="996" y="120" width="16" height="16"/><rect x="1012" y="120" width="16" height="16"/>
                <rect x="964" y="136" width="16" height="16"/><rect x="980" y="136" width="16" height="16"/><rect x="996" y="136" width="16" height="16"/><rect x="1012" y="136" width="16" height="16"/><rect x="1028" y="136" width="16" height="16"/><rect x="1044" y="136" width="16" height="16"/>
                <rect x="948" y="152" width="16" height="16"/><rect x="964" y="152" width="16" height="16"/><rect x="980" y="152" width="16" height="16"/><rect x="996" y="152" width="16" height="16"/><rect x="1012" y="152" width="16" height="16"/><rect x="1028" y="152" width="16" height="16"/><rect x="1044" y="152" width="16" height="16"/><rect x="1060" y="152" width="16" height="16"/>
                <rect x="1250" y="30" width="12" height="12"/><rect x="1262" y="30" width="12" height="12"/>
                <rect x="1238" y="42" width="12" height="12"/><rect x="1250" y="42" width="12" height="12"/><rect x="1262" y="42" width="12" height="12"/><rect x="1274" y="42" width="12" height="12"/>
                <rect x="1238" y="54" width="12" height="12"/><rect x="1250" y="54" width="12" height="12"/><rect x="1262" y="54" width="12" height="12"/><rect x="1274" y="54" width="12" height="12"/>
                <rect x="1500" y="170" width="14" height="14"/><rect x="1514" y="170" width="14" height="14"/><rect x="1528" y="170" width="14" height="14"/>
                <rect x="1486" y="184" width="14" height="14"/><rect x="1500" y="184" width="14" height="14"/><rect x="1514" y="184" width="14" height="14"/><rect x="1528" y="184" width="14" height="14"/><rect x="1542" y="184" width="14" height="14"/>
                <rect x="1486" y="198" width="14" height="14"/><rect x="1500" y="198" width="14" height="14"/><rect x="1514" y="198" width="14" height="14"/><rect x="1528" y="198" width="14" height="14"/><rect x="1542" y="198" width="14" height="14"/>
                <rect x="1780" y="80" width="10" height="10"/><rect x="1790" y="80" width="10" height="10"/>
                <rect x="1770" y="90" width="10" height="10"/><rect x="1780" y="90" width="10" height="10"/><rect x="1790" y="90" width="10" height="10"/><rect x="1800" y="90" width="10" height="10"/>
                <rect x="2000" y="100" width="16" height="16"/><rect x="2016" y="100" width="16" height="16"/><rect x="2032" y="100" width="16" height="16"/>
                <rect x="1984" y="116" width="16" height="16"/><rect x="2000" y="116" width="16" height="16"/><rect x="2016" y="116" width="16" height="16"/><rect x="2032" y="116" width="16" height="16"/><rect x="2048" y="116" width="16" height="16"/>
                <rect x="1968" y="132" width="16" height="16"/><rect x="1984" y="132" width="16" height="16"/><rect x="2000" y="132" width="16" height="16"/><rect x="2016" y="132" width="16" height="16"/><rect x="2032" y="132" width="16" height="16"/><rect x="2048" y="132" width="16" height="16"/><rect x="2064" y="132" width="16" height="16"/>
                <rect x="2250" y="240" width="12" height="12"/><rect x="2262" y="240" width="12" height="12"/>
                <rect x="2238" y="252" width="12" height="12"/><rect x="2250" y="252" width="12" height="12"/><rect x="2262" y="252" width="12" height="12"/><rect x="2274" y="252" width="12" height="12"/>
            </svg>
