<svg width="512" height="512" viewBox="0 0 512 512" fill="none" xmlns="http://www.w3.org/2000/svg">
<rect width="512" height="512" rx="256" fill="#525ceb"/>
<path d="M310.062 235.17C312.447 231.036 313.719 226.266 313.719 221.177C313.719 205.436 300.999 192.874 285.416 192.874C269.675 192.874 256.954 205.595 256.954 221.177C256.954 236.919 269.675 249.64 285.416 249.64C289.073 249.64 292.413 249.004 295.593 247.731C316.899 273.808 332.323 303.384 341.704 334.708C338.206 337.252 334.549 339.796 330.733 342.022C329.143 342.817 327.712 343.771 325.327 345.202C316.74 350.449 308.631 354.266 300.84 358.082C284.144 366.032 268.244 373.823 256.795 390.36C245.188 373.664 229.287 366.032 212.75 358.082C204.8 354.266 196.691 350.449 187.945 345.202L186.514 344.248C185.401 343.612 184.288 343.135 183.334 342.499C139.767 316.263 112.895 268.879 112.895 218.474C112.895 214.976 113.054 211.478 113.213 208.139C115.28 179.041 125.774 158.211 146.763 144.377C148.194 151.851 149.943 159.324 152.01 166.638C162.027 202.097 179.518 235.488 203.21 264.427C200.825 268.561 199.553 273.331 199.553 278.42C199.553 294.161 212.273 306.882 228.015 306.882C243.757 306.882 256.318 294.161 256.318 278.42C256.318 262.678 243.598 250.117 228.015 250.117C224.358 250.117 221.019 250.753 217.839 252.025C189.854 217.838 171.727 177.451 164.731 135.314C187.15 126.41 217.362 122.435 256.795 122.435C354.425 122.435 395.926 147.24 400.219 208.298C400.378 211.637 400.537 214.976 400.537 218.474C400.537 257.431 384.636 294.32 357.605 321.033C347.27 290.027 331.051 260.77 310.062 235.17Z" fill="#ebedfc"/>
<path d="M357.605 321.034C352.676 325.963 347.429 330.415 341.704 334.549C332.323 303.225 316.899 273.65 295.593 247.573C292.412 248.845 288.914 249.481 285.416 249.481C269.675 249.481 256.954 236.761 256.954 221.019C256.954 205.277 269.675 192.716 285.416 192.716C301.158 192.716 313.719 205.436 313.719 221.019C313.719 226.107 312.447 230.877 310.062 235.011C331.051 260.77 347.27 290.028 357.605 321.034Z" fill="#525ceb"/>
<path d="M256.318 278.42C256.318 294.162 243.597 306.882 228.015 306.882C212.273 306.882 199.553 294.162 199.553 278.42C199.553 273.332 200.825 268.562 203.21 264.428C179.518 235.488 162.027 202.097 152.01 166.639C149.943 159.324 148.194 151.851 146.763 144.378C152.01 140.88 158.052 137.859 164.571 135.314C171.727 177.451 189.853 217.839 217.679 252.025C220.86 250.753 224.358 250.117 227.856 250.117C243.597 250.117 256.318 262.837 256.318 278.42Z" fill="#525ceb"/>
</svg>
