<svg width="142" height="142" viewBox="0 0 142 142" fill="none" xmlns="http://www.w3.org/2000/svg">
<path fill-rule="evenodd" clip-rule="evenodd" d="M36.1769 8.36671L45.3537 26.7217C48.3788 32.7723 56.7569 33.4252 60.6825 27.9161L80.5752 0C88.5326 1.06118 96.0777 3.42643 102.989 6.87382L83.8889 33.6771C84.1028 33.4796 84.3461 33.3101 84.6144 33.176L117.693 16.6352C124.056 22.0925 129.452 28.6448 133.59 36.0002L114.239 45.6762C108.189 48.7015 107.536 57.0803 113.045 61.0063L142 81.6428C140.841 89.5473 138.393 97.033 134.877 103.88L107.284 84.2145C107.482 84.4284 107.651 84.6718 107.785 84.9401L124.692 118.757C119.151 125.001 112.538 130.271 105.142 134.28L95.286 114.567C92.2609 108.516 83.8829 107.864 79.9572 113.373L59.5577 142C51.7075 140.742 44.2825 138.211 37.5013 134.625L56.7509 107.612C56.537 107.809 56.2936 107.979 56.0252 108.113L23.0961 124.579C16.8901 119.011 11.6593 112.378 7.69153 104.968L26.4007 95.6125C32.4508 92.5872 33.1036 84.2085 27.595 80.2825L0 60.6155C1.16096 52.7119 3.61011 45.2271 7.12734 38.3814L33.3557 57.0744C33.1581 56.8604 32.9886 56.617 32.8545 56.3486L16.7542 24.1456C22.2377 17.8202 28.809 12.4635 36.1769 8.36671ZM57.4968 106.565L73.2043 84.5218C73.7935 83.695 74.746 83.2041 75.7612 83.2041L104.977 83.2044C105.419 83.2044 105.847 83.2971 106.237 83.4684L84.1962 67.7597C83.3695 67.1705 82.8786 66.2178 82.8786 65.2026L82.8788 35.9844C82.8788 35.5424 82.9716 35.1145 83.1429 34.724L67.4354 56.7669C66.8462 57.5937 65.8937 58.0846 64.8785 58.0846L35.6627 58.0844C35.2207 58.0844 34.7928 57.9915 34.4022 57.8203L56.4435 73.5291C57.2702 74.1183 57.761 75.0709 57.761 76.0861L57.7608 105.304C57.7608 105.746 57.668 106.174 57.4968 106.565Z" fill="white"/>
</svg>
