<svg width="155" height="40" viewBox="0 0 155 40" fill="none" xmlns="http://www.w3.org/2000/svg">
<path d="M65.1711 28.5018C69.699 28.5018 71.812 26.3284 71.812 22.8873C71.812 20.1705 70.0008 18.299 66.2578 18.0273V17.7557C69.6386 17.5142 70.9668 15.703 70.9668 13.1976C70.9668 10.0281 68.733 8.27734 64.5976 8.27734H52.4629V28.5018H65.1711ZM56.9908 12.3524H64.024C65.7144 12.3524 66.4389 12.9561 66.4389 14.3447C66.4389 15.7332 65.7446 16.3068 64.0844 16.3068H56.9908V12.3524ZM56.9908 20.0498H64.6278C66.4691 20.0498 67.2237 20.6233 67.2237 22.2232C67.2237 23.8532 66.4691 24.4267 64.6278 24.4267H56.9908V20.0498Z" fill="white"/>
<path d="M77.709 28.5018V13.3787H73.1812V28.5018H77.709Z" fill="white"/>
<path d="M90.4328 28.5018V24.4267H87.7161C86.1162 24.4267 85.5427 24.0343 85.5427 22.525V17.1218H90.4328V13.3787H85.5427V10.4507H81.0148V13.3787H78.6302V17.1218H81.0148V23.0382C81.0148 26.8416 83.158 28.5018 86.6898 28.5018H90.4328Z" fill="white"/>
<path d="M96.3546 28.5018V19.7479C96.3546 17.8462 97.0791 16.9105 99.1015 16.9105C100.943 16.9105 101.607 17.6349 101.607 19.2951V20.8648H106.135V18.3594C106.135 15.4012 104.746 13.0769 101.365 13.0769C98.3167 13.0769 96.7169 14.9484 96.2943 17.3934H96.0226V13.3787H91.8268V28.5018H96.3546Z" fill="white"/>
<path d="M115.532 28.8037C120.694 28.8037 124.165 25.7247 124.165 20.9554C124.165 16.1256 120.694 13.0769 115.532 13.0769C110.37 13.0769 106.899 16.1256 106.899 20.9554C106.899 25.7247 110.37 28.8037 115.532 28.8037ZM115.532 24.789C112.453 24.789 111.397 23.6117 111.397 20.9554C111.397 18.299 112.453 17.0614 115.532 17.0614C118.581 17.0614 119.668 18.299 119.668 20.9554C119.668 23.6117 118.581 24.789 115.532 24.789Z" fill="white"/>
<path d="M133.772 28.8037C138.934 28.8037 142.405 25.7247 142.405 20.9554C142.405 16.1256 138.934 13.0769 133.772 13.0769C128.61 13.0769 125.139 16.1256 125.139 20.9554C125.139 25.7247 128.61 28.8037 133.772 28.8037ZM133.772 24.789C130.693 24.789 129.637 23.6117 129.637 20.9554C129.637 18.299 130.693 17.0614 133.772 17.0614C136.821 17.0614 137.908 18.299 137.908 20.9554C137.908 23.6117 136.821 24.789 133.772 24.789Z" fill="white"/>
<path d="M154.608 28.5018V24.4267H151.891C150.292 24.4267 149.718 24.0343 149.718 22.525V17.1218H154.608V13.3787H149.718V10.4507H145.19V13.3787H142.806V17.1218H145.19V23.0382C145.19 26.8416 147.333 28.5018 150.865 28.5018H154.608Z" fill="white"/>
<path d="M77.7076 8.27734V11.8393H73.1797V8.27734H77.7076Z" fill="#1F76F9"/>
<path d="M28.6517 16.3824C28.9983 15.7817 29.1832 15.0885 29.1832 14.3491C29.1832 12.0615 27.3347 10.2361 25.0703 10.2361C22.7827 10.2361 20.9342 12.0847 20.9342 14.3491C20.9342 16.6366 22.7827 18.4851 25.0703 18.4851C25.6017 18.4851 26.0869 18.3927 26.5491 18.2079C29.6453 21.9973 31.8866 26.2951 33.2499 30.8471C32.7415 31.2168 32.2101 31.5865 31.6555 31.91C31.4245 32.0255 31.2165 32.1641 30.8699 32.3721C29.6222 33.1346 28.4438 33.6891 27.3116 34.2437C24.8854 35.399 22.5748 36.5312 20.9111 38.9343C19.2244 36.5081 16.9138 35.399 14.5107 34.2437C13.3554 33.6891 12.177 33.1346 10.9061 32.3721L10.6982 32.2334C10.5364 32.141 10.3747 32.0717 10.2361 31.9793C3.90495 28.1667 0 21.281 0 13.9563C0 13.4479 0.0231062 12.9396 0.0462125 12.4544C0.346593 8.22588 1.8716 5.19894 4.92163 3.18868C5.12958 4.27469 5.38375 5.36069 5.68413 6.42358C7.13983 11.5763 9.68151 16.4287 13.1243 20.634C12.7777 21.2348 12.5929 21.928 12.5929 22.6674C12.5929 24.9549 14.4414 26.8034 16.7289 26.8034C19.0164 26.8034 20.8418 24.9549 20.8418 22.6674C20.8418 20.3799 18.9933 18.5544 16.7289 18.5544C16.1975 18.5544 15.7122 18.6469 15.2501 18.8317C11.1834 13.8638 8.54931 7.99482 7.53263 1.87162C10.7906 0.57766 15.1808 0 20.9111 0C35.0984 0 41.1291 3.6046 41.753 12.4775C41.7761 12.9627 41.7992 13.4479 41.7992 13.9563C41.7992 19.6173 39.4885 24.978 35.5605 28.8599C34.0586 24.3542 31.7017 20.1026 28.6517 16.3824Z" fill="#1F76F9"/>
<path d="M35.5598 28.8598C34.8435 29.5761 34.081 30.223 33.2492 30.8238C31.8859 26.2718 29.6446 21.9741 26.5484 18.1846C26.0863 18.3695 25.5779 18.4619 25.0696 18.4619C22.7821 18.4619 20.9336 16.6134 20.9336 14.3258C20.9336 12.0383 22.7821 10.2129 25.0696 10.2129C27.3571 10.2129 29.1825 12.0614 29.1825 14.3258C29.1825 15.0652 28.9977 15.7584 28.6511 16.3592C31.7011 20.1024 34.0579 24.354 35.5598 28.8598Z" fill="#E9F2FF"/>
<path d="M20.8421 22.6676C20.8421 24.9551 18.9936 26.8036 16.7292 26.8036C14.4416 26.8036 12.5931 24.9551 12.5931 22.6676C12.5931 21.9282 12.778 21.235 13.1246 20.6342C9.68176 16.4289 7.14007 11.5765 5.68438 6.42379C5.384 5.36089 5.12983 4.27489 4.92188 3.18889C5.68438 2.68055 6.56242 2.24153 7.50977 1.87183C8.54955 7.99503 11.1837 13.8641 15.2273 18.8319C15.6894 18.6471 16.1977 18.5547 16.7061 18.5547C18.9936 18.5547 20.8421 20.4032 20.8421 22.6676Z" fill="#E9F2FF"/>
</svg>
